<svg xmlns="http://www.w3.org/2000/svg" viewBox="0 0 800 600" width="800" height="600" font-family="'JetBrains Mono',ui-monospace,monospace">
<rect width="800" height="600" fill="#0b0c0e"/>
<line x1="56.0" y1="44" x2="56.0" y2="470" stroke="#1b1e24" stroke-width="1"/>
<line x1="199.2" y1="44" x2="199.2" y2="470" stroke="#1b1e24" stroke-width="1"/>
<line x1="342.4" y1="44" x2="342.4" y2="470" stroke="#1b1e24" stroke-width="1"/>
<line x1="485.6" y1="44" x2="485.6" y2="470" stroke="#1b1e24" stroke-width="1"/>
<line x1="628.8" y1="44" x2="628.8" y2="470" stroke="#1b1e24" stroke-width="1"/>
<line x1="772.0" y1="44" x2="772.0" y2="470" stroke="#1b1e24" stroke-width="1"/>
<line x1="56" y1="44.0" x2="772" y2="44.0" stroke="#1b1e24" stroke-width="1"/>
<text x="778" y="48.0" fill="#5b626b" font-size="13">126</text>
<line x1="56" y1="129.2" x2="772" y2="129.2" stroke="#1b1e24" stroke-width="1"/>
<text x="778" y="133.2" fill="#5b626b" font-size="13">112</text>
<line x1="56" y1="214.4" x2="772" y2="214.4" stroke="#1b1e24" stroke-width="1"/>
<text x="778" y="218.4" fill="#5b626b" font-size="13">97</text>
<line x1="56" y1="299.6" x2="772" y2="299.6" stroke="#1b1e24" stroke-width="1"/>
<text x="778" y="303.6" fill="#5b626b" font-size="13">82</text>
<line x1="56" y1="384.8" x2="772" y2="384.8" stroke="#1b1e24" stroke-width="1"/>
<text x="778" y="388.8" fill="#5b626b" font-size="13">67</text>
<line x1="56" y1="470.0" x2="772" y2="470.0" stroke="#1b1e24" stroke-width="1"/>
<text x="778" y="474.0" fill="#5b626b" font-size="13">52</text>
<polyline points="70.9,415.3 100.8,421.1 130.6,415.3 160.4,413.9 190.2,408.4 220.1,398.0 249.9,387.7 279.8,377.3 309.6,360.0 339.4,349.7 369.2,338.2 399.1,319.7 428.9,308.2 458.8,296.7 488.6,278.3 518.4,267.9 548.2,256.4 578.1,238.0 607.9,227.6 637.8,216.1 667.6,195.4 697.4,182.7 727.2,167.8 757.1,143.6" fill="none" stroke="#7ae2a5" stroke-width="2" opacity="0.85"/>
<line x1="70.9" y1="400.9" x2="70.9" y2="441.2" stroke="#e23b3b" stroke-width="1.4"/>
<rect x="62.7" y="415.3" width="16.4" height="11.5" fill="#e23b3b"/>
<rect x="62.7" y="532.8" width="16.4" height="27.2" fill="#e23b3b" opacity="0.4"/>
<line x1="100.8" y1="395.2" x2="100.8" y2="447.0" stroke="#1f9d6b" stroke-width="1.4"/>
<rect x="92.5" y="415.3" width="16.4" height="11.5" fill="#1f9d6b"/>
<rect x="92.5" y="507.6" width="16.4" height="52.4" fill="#1f9d6b" opacity="0.4"/>
<line x1="130.6" y1="377.9" x2="130.6" y2="441.2" stroke="#e23b3b" stroke-width="1.4"/>
<rect x="122.4" y="403.8" width="16.4" height="23.0" fill="#e23b3b"/>
<rect x="122.4" y="523.3" width="16.4" height="36.7" fill="#e23b3b" opacity="0.4"/>
<line x1="160.4" y1="389.4" x2="160.4" y2="429.7" stroke="#1f9d6b" stroke-width="1.4"/>
<rect x="152.2" y="403.8" width="16.4" height="5.8" fill="#1f9d6b"/>
<rect x="152.2" y="498.1" width="16.4" height="61.9" fill="#1f9d6b" opacity="0.4"/>
<line x1="190.2" y1="366.4" x2="190.2" y2="423.9" stroke="#e23b3b" stroke-width="1.4"/>
<rect x="182.0" y="386.5" width="16.4" height="23.0" fill="#e23b3b"/>
<rect x="182.0" y="513.8" width="16.4" height="46.2" fill="#e23b3b" opacity="0.4"/>
<line x1="220.1" y1="337.6" x2="220.1" y2="406.7" stroke="#e23b3b" stroke-width="1.4"/>
<rect x="211.9" y="363.5" width="16.4" height="23.0" fill="#e23b3b"/>
<rect x="211.9" y="529.4" width="16.4" height="30.6" fill="#e23b3b" opacity="0.4"/>
<line x1="249.9" y1="349.1" x2="249.9" y2="389.4" stroke="#1f9d6b" stroke-width="1.4"/>
<rect x="241.7" y="363.5" width="16.4" height="11.5" fill="#1f9d6b"/>
<rect x="241.7" y="504.2" width="16.4" height="55.8" fill="#1f9d6b" opacity="0.4"/>
<line x1="279.8" y1="331.8" x2="279.8" y2="395.2" stroke="#e23b3b" stroke-width="1.4"/>
<rect x="271.5" y="352.0" width="16.4" height="23.0" fill="#e23b3b"/>
<rect x="271.5" y="519.9" width="16.4" height="40.1" fill="#e23b3b" opacity="0.4"/>
<line x1="309.6" y1="297.3" x2="309.6" y2="366.4" stroke="#e23b3b" stroke-width="1.4"/>
<rect x="301.4" y="323.2" width="16.4" height="28.8" fill="#e23b3b"/>
<rect x="301.4" y="494.7" width="16.4" height="65.3" fill="#e23b3b" opacity="0.4"/>
<line x1="339.4" y1="308.8" x2="339.4" y2="354.9" stroke="#1f9d6b" stroke-width="1.4"/>
<rect x="331.2" y="323.2" width="16.4" height="11.5" fill="#1f9d6b"/>
<rect x="331.2" y="510.4" width="16.4" height="49.6" fill="#1f9d6b" opacity="0.4"/>
<line x1="369.2" y1="285.8" x2="369.2" y2="349.1" stroke="#e23b3b" stroke-width="1.4"/>
<rect x="361.0" y="305.9" width="16.4" height="28.8" fill="#e23b3b"/>
<rect x="361.0" y="526.0" width="16.4" height="34.0" fill="#e23b3b" opacity="0.4"/>
<line x1="399.1" y1="257.0" x2="399.1" y2="326.1" stroke="#e23b3b" stroke-width="1.4"/>
<rect x="390.9" y="282.9" width="16.4" height="23.0" fill="#e23b3b"/>
<rect x="390.9" y="500.8" width="16.4" height="59.2" fill="#e23b3b" opacity="0.4"/>
<line x1="428.9" y1="268.5" x2="428.9" y2="308.8" stroke="#1f9d6b" stroke-width="1.4"/>
<rect x="420.7" y="282.9" width="16.4" height="11.5" fill="#1f9d6b"/>
<rect x="420.7" y="516.5" width="16.4" height="43.5" fill="#1f9d6b" opacity="0.4"/>
<line x1="458.8" y1="245.5" x2="458.8" y2="314.6" stroke="#e23b3b" stroke-width="1.4"/>
<rect x="450.5" y="265.6" width="16.4" height="28.8" fill="#e23b3b"/>
<rect x="450.5" y="532.1" width="16.4" height="27.9" fill="#e23b3b" opacity="0.4"/>
<line x1="488.6" y1="216.7" x2="488.6" y2="280.0" stroke="#e23b3b" stroke-width="1.4"/>
<rect x="480.4" y="242.6" width="16.4" height="23.0" fill="#e23b3b"/>
<rect x="480.4" y="507.0" width="16.4" height="53.0" fill="#e23b3b" opacity="0.4"/>
<line x1="518.4" y1="228.2" x2="518.4" y2="274.3" stroke="#1f9d6b" stroke-width="1.4"/>
<rect x="510.2" y="242.6" width="16.4" height="11.5" fill="#1f9d6b"/>
<rect x="510.2" y="522.6" width="16.4" height="37.4" fill="#1f9d6b" opacity="0.4"/>
<line x1="548.2" y1="205.2" x2="548.2" y2="268.5" stroke="#e23b3b" stroke-width="1.4"/>
<rect x="540.0" y="225.3" width="16.4" height="28.8" fill="#e23b3b"/>
<rect x="540.0" y="497.4" width="16.4" height="62.6" fill="#e23b3b" opacity="0.4"/>
<line x1="578.1" y1="176.4" x2="578.1" y2="245.5" stroke="#e23b3b" stroke-width="1.4"/>
<rect x="569.9" y="202.3" width="16.4" height="23.0" fill="#e23b3b"/>
<rect x="569.9" y="513.1" width="16.4" height="46.9" fill="#e23b3b" opacity="0.4"/>
<line x1="607.9" y1="187.9" x2="607.9" y2="228.2" stroke="#1f9d6b" stroke-width="1.4"/>
<rect x="599.7" y="202.3" width="16.4" height="11.5" fill="#1f9d6b"/>
<rect x="599.7" y="528.7" width="16.4" height="31.3" fill="#1f9d6b" opacity="0.4"/>
<line x1="637.8" y1="164.9" x2="637.8" y2="234.0" stroke="#e23b3b" stroke-width="1.4"/>
<rect x="629.5" y="185.0" width="16.4" height="28.8" fill="#e23b3b"/>
<rect x="629.5" y="503.6" width="16.4" height="56.4" fill="#e23b3b" opacity="0.4"/>
<line x1="667.6" y1="124.6" x2="667.6" y2="199.4" stroke="#e23b3b" stroke-width="1.4"/>
<rect x="659.4" y="150.5" width="16.4" height="34.5" fill="#e23b3b"/>
<rect x="659.4" y="519.2" width="16.4" height="40.8" fill="#e23b3b" opacity="0.4"/>
<line x1="697.4" y1="136.1" x2="697.4" y2="182.2" stroke="#1f9d6b" stroke-width="1.4"/>
<rect x="689.2" y="150.5" width="16.4" height="11.5" fill="#1f9d6b"/>
<rect x="689.2" y="494.0" width="16.4" height="66.0" fill="#1f9d6b" opacity="0.4"/>
<line x1="727.2" y1="107.3" x2="727.2" y2="176.4" stroke="#e23b3b" stroke-width="1.4"/>
<rect x="719.0" y="127.5" width="16.4" height="34.5" fill="#e23b3b"/>
<rect x="719.0" y="509.7" width="16.4" height="50.3" fill="#e23b3b" opacity="0.4"/>
<line x1="757.1" y1="67.0" x2="757.1" y2="147.6" stroke="#e23b3b" stroke-width="1.4"/>
<rect x="748.9" y="92.9" width="16.4" height="34.5" fill="#e23b3b"/>
<rect x="748.9" y="525.3" width="16.4" height="34.7" fill="#e23b3b" opacity="0.4"/>
<text x="56" y="28" fill="#e0e2e0" font-size="18" font-weight="700">TWSE · 加權指數</text>
<text x="238" y="28" fill="#e23b3b" font-size="15">▲ +1.82%</text>
<text x="56" y="484" fill="#5b626b" font-size="12">VOL</text>
</svg>